<?xml version="1.0" encoding="UTF-8"?>
<svg width="38px" height="38px" viewBox="0 0 38 38" version="1.1" xmlns="http://www.w3.org/2000/svg" xmlns:xlink="http://www.w3.org/1999/xlink">
    <!-- Generator: Sketch 52.5 (67469) - http://www.bohemiancoding.com/sketch -->
    <title>ComtravoLogo_square</title>
    <desc>Created with Sketch.</desc>
    <g id="ComtravoLogo_square" stroke="none" stroke-width="1" fill="none" fill-rule="evenodd">
        <path d="M35.6620561,4.04661309 L1.79462751,6.10975594 C1.07891322,6.15347023 0.740341792,7.00718452 1.23148465,7.53004166 L11.6894846,18.7020417 C11.9577704,18.9883274 12.3863418,19.0560417 12.7274846,18.8648988 L27.4540561,10.6166131 C27.8620561,10.3877559 28.0051989,9.87261309 27.7746275,9.46461309 C27.5431989,9.05661309 27.0254846,8.9108988 26.6174846,9.1388988 L12.4711989,17.0614702 L3.69748465,7.69032737 L34.5066275,5.81318452 L18.5166275,30.5074702 L18.0417704,19.9226131 C18.0203418,19.4537559 17.6329132,19.0911845 17.1769132,19.1126131 C16.7200561,19.1340417 16.3669132,19.5317559 16.3883418,20.0006131 L16.9797704,33.1783274 C17.0166275,33.9986131 18.0520561,34.2943274 18.4951989,33.6103274 L36.8200561,5.31175594 C37.0729132,4.9208988 36.9700561,4.39375594 36.5894846,4.13318452 C36.3520561,3.97118452 35.7186275,4.04318452 35.6620561,4.04661309 Z" id="Fill-1" fill="#00B4EA" transform="translate(18.979293, 19.009207) rotate(2.000000) translate(-18.979293, -19.009207) "></path>
    </g>
</svg>